<svg width="80" height="54" viewBox="0 0 80 54" fill="none" xmlns="http://www.w3.org/2000/svg">
<g clip-path="url(#clip0_31_194)">
<path d="M16.1141 25.8556L10.968 31.0006L12.4345 32.4402L19.0204 25.8556L12.4345 19.271L10.968 20.7372L16.1141 25.8556Z" fill="#EF443B"/>
<path d="M6.59896 32.4621L0 25.8644L6.59896 19.267L13.1977 25.8644L6.59896 32.4621Z" fill="#EF443B"/>
<path d="M28.3527 30.7607L27.6328 28.4415H24.0865L23.3666 30.7607H21.1269L24.5931 20.9505H27.1262L30.5924 30.7607H28.3527ZM27.1528 26.7087C26.4862 24.6027 26.1396 23.4031 26.0596 23.1365C25.9796 22.8699 25.8996 22.63 25.873 22.47C25.713 23.0298 25.313 24.4427 24.6198 26.7087H27.1528ZM38.5382 30.7607H36.5117V26.4154C36.5117 25.8823 36.4051 25.4824 36.2184 25.2158C36.0318 24.9492 35.7118 24.8159 35.3119 24.8159C34.7519 24.8159 34.3253 25.0025 34.0854 25.3758C33.8454 25.749 33.7121 26.3888 33.7121 27.2685V30.7874H31.6856V23.3231H33.2321L33.4988 24.2828H33.6054C33.8454 23.9096 34.1387 23.643 34.5386 23.4564C34.9386 23.2698 35.3919 23.1898 35.8985 23.1898C36.7784 23.1898 37.4183 23.4297 37.8716 23.8829C38.3249 24.3361 38.5382 25.0292 38.5382 25.9089V30.7607ZM39.3647 23.2964H41.6045L43.0176 27.5084C43.151 27.8816 43.231 28.3082 43.2576 28.8147H43.3109C43.3643 28.3615 43.4443 27.935 43.6042 27.5084L44.9907 23.2964H47.1772L44.0042 31.7204C43.7109 32.4935 43.3109 33.08 42.7777 33.4799C42.2444 33.8797 41.6045 34.0663 40.8846 34.0663C40.5379 34.0663 40.1913 34.0397 39.8447 33.9597V32.3336C40.0846 32.3869 40.3513 32.4135 40.6446 32.4135C41.0179 32.4135 41.3112 32.3069 41.5778 32.0936C41.8444 31.8804 42.0578 31.5338 42.2177 31.1073L42.3511 30.7341L39.3647 23.2964ZM56.4827 25.7756C56.4827 27.3751 56.0295 28.6014 55.1229 29.4811C54.2163 30.3608 52.8832 30.7607 51.15 30.7607H48.377V21.0038H51.4433C53.0431 21.0038 54.2697 21.4303 55.1496 22.2567C56.0295 23.1098 56.4827 24.2828 56.4827 25.7756ZM54.323 25.829C54.323 23.723 53.3898 22.6833 51.55 22.6833H50.4568V29.0279H51.3367C53.3364 29.0546 54.323 27.9883 54.323 25.829ZM61.3888 30.894C60.189 30.894 59.2557 30.5741 58.5625 29.9077C57.8959 29.2412 57.5493 28.3082 57.5493 27.0819C57.5493 25.829 57.8692 24.8693 58.4825 24.1761C59.0958 23.483 59.9757 23.1631 61.0689 23.1631C62.1354 23.1631 62.9353 23.4564 63.5219 24.0695C64.1085 24.6826 64.4018 25.5091 64.4018 26.5487V27.5351H59.5757C59.6024 28.1216 59.7624 28.5747 60.0823 28.8946C60.4023 29.2145 60.8556 29.3745 61.4422 29.3745C61.8954 29.3745 62.3221 29.3212 62.722 29.2412C63.122 29.1346 63.5486 29.0013 63.9752 28.788V30.3609C63.6286 30.5475 63.2286 30.6807 62.8287 30.7607C62.4554 30.8407 61.9754 30.894 61.3888 30.894ZM61.0955 24.6027C60.6689 24.6027 60.3223 24.736 60.0823 25.0025C59.8423 25.2691 59.709 25.669 59.6557 26.1755H62.5087C62.5087 25.669 62.3754 25.2958 62.1087 25.0025C61.8688 24.736 61.5221 24.6027 61.0955 24.6027ZM71.3077 28.5481C71.3077 29.3212 71.041 29.9077 70.5078 30.3075C69.9745 30.7074 69.1746 30.9207 68.108 30.9207C67.5748 30.9207 67.0948 30.894 66.7215 30.814C66.3483 30.7341 65.975 30.6274 65.655 30.4941V28.8147C66.0283 29.0013 66.4549 29.1346 66.9349 29.2679C67.4148 29.4012 67.8147 29.4545 68.188 29.4545C68.9346 29.4545 69.3079 29.2412 69.3079 28.8147C69.3079 28.6547 69.2546 28.5214 69.1479 28.4148C69.0413 28.3082 68.8813 28.2015 68.6413 28.0682C68.4013 27.935 68.0814 27.8017 67.6814 27.6151C67.0948 27.3751 66.6949 27.1619 66.4282 26.9486C66.1616 26.7353 65.975 26.5221 65.8416 26.2555C65.7083 25.9889 65.655 25.669 65.655 25.2691C65.655 24.6027 65.9216 24.0962 66.4282 23.723C66.9348 23.3497 67.6814 23.1898 68.6147 23.1898C69.5212 23.1898 70.4011 23.3764 71.2277 23.7763L70.6144 25.2425C70.2411 25.0825 69.8945 24.9492 69.5745 24.8426C69.2546 24.736 68.908 24.6826 68.588 24.6826C67.9747 24.6826 67.6814 24.8426 67.6814 25.1625C67.6814 25.3491 67.7881 25.5091 67.9747 25.6423C68.1614 25.7756 68.588 25.9622 69.2546 26.2288C69.8412 26.4687 70.2678 26.682 70.5344 26.8953C70.8011 27.1085 71.0144 27.3485 71.1477 27.6151C71.2277 27.855 71.3077 28.1749 71.3077 28.5481ZM74.534 26.7087L75.4139 25.5624L77.4936 23.2964H79.7867L76.827 26.5221L80 30.7607H77.6536L75.4939 27.7483L74.614 28.4415V30.7607H72.5875V20.364H74.614V25.0025L74.5073 26.7087H74.534Z" fill="#f0e8f6d0"/>
</g>
<defs>
<clipPath id="clip0_31_194">
<rect width="80" height="53.3333" fill="white"/>
</clipPath>
</defs>
</svg>
