<svg xmlns="http://www.w3.org/2000/svg" xmlns:xlink="http://www.w3.org/1999/xlink" viewBox="0 0 62.06 44.12"><defs><style>.cls-1{font-size:11.16px;fill:#287ab4;font-family:Montserrat-SemiBold, Montserrat;font-weight:600;}.cls-2{fill:url(#linear-gradient);}.cls-3{fill:url(#linear-gradient-2);}.cls-4{fill:url(#linear-gradient-3);}</style><linearGradient id="linear-gradient" x1="48.54" y1="8.29" x2="48.58" y2="8.29" gradientUnits="userSpaceOnUse"><stop offset="0" stop-color="#25a9e0"/><stop offset="1" stop-color="#2a4d8b"/></linearGradient><linearGradient id="linear-gradient-2" x1="10.42" y1="15.14" x2="43.26" y2="15.14" xlink:href="#linear-gradient"/><linearGradient id="linear-gradient-3" x1="31.48" y1="10.71" x2="52.48" y2="10.71" xlink:href="#linear-gradient"/></defs><g id="Calque_2" data-name="Calque 2"><g id="OBJECTS"><text class="cls-1" transform="translate(0.06 41.16)">ATOO PRO</text><polygon class="cls-2" points="48.54 8.3 48.58 8.3 48.54 8.27 48.54 8.3"/><path class="cls-3" d="M24.05,0,10.42,30.28A8.75,8.75,0,0,0,18.49,25l.72-1.68h0l1.88-4.41L26.77,5.62l5.71,13.24h0l2.58,6a8.93,8.93,0,0,0,8.21,5.41L29.59,0Z"/><path class="cls-4" d="M52.35,9c0-.09,0-.19,0-.28s0-.14,0-.21,0-.14,0-.21,0-.27-.09-.4a9.09,9.09,0,0,0-1.43-3.14l-.29-.4a10.21,10.21,0,0,0-1.83-1.79l-.4-.3a10.54,10.54,0,0,0-1.14-.68,7.24,7.24,0,0,0-.87-.4A16.83,16.83,0,0,0,39.58,0h-8.1a8.14,8.14,0,0,0,3,3.47,8.15,8.15,0,0,0,4.39,1.29h.47A8.67,8.67,0,0,1,44.9,6.31a5.43,5.43,0,0,1,1.91,4.46,5.43,5.43,0,0,1-1.91,4.46,8.18,8.18,0,0,1-5,1.53L42,21.41a15.34,15.34,0,0,0,4.48-1.16,10,10,0,0,0,4.47-3.74,10.49,10.49,0,0,0,1.57-5.74A11.25,11.25,0,0,0,52.35,9Zm-3.81-.7v0l0,0Z"/></g></g></svg>