<svg width="30" height="40" viewBox="0 0 30 40" fill="none" xmlns="http://www.w3.org/2000/svg">
<rect x="6.12198" y="4.89758" width="17.7537" height="18.3659" fill="white"/>
<path d="M15 0C6.71576 0 0 6.71572 0 15C0 17.7705 0.542276 20.6319 2.09844 22.6943L15 39.7928L27.9016 22.6943C29.315 20.8211 30 17.5094 30 15C30 6.71572 23.2843 0 15 0ZM15 8.68766C18.4857 8.68766 21.3123 11.5143 21.3123 15C21.3123 18.4857 18.4857 21.3123 15 21.3123C11.5143 21.3123 8.68769 18.4857 8.68769 15C8.68769 11.5143 11.5143 8.68766 15 8.68766Z" fill="#47819A"/>
</svg>
