<svg width="424" height="358" viewBox="0 0 424 358" fill="none" xmlns="http://www.w3.org/2000/svg">
<path d="M340.851 117.408C370.685 117.408 394.87 91.6644 394.87 59.9086C394.87 28.1527 370.685 2.4095 340.851 2.4095C311.017 2.4095 286.832 28.1527 286.832 59.9086C286.832 91.6644 311.017 117.408 340.851 117.408Z" stroke="#f0e8f6d0" stroke-width="3" stroke-miterlimit="10"/>
<path d="M326.59 38.7489C330.886 38.7489 334.369 35.0417 334.369 30.4687C334.369 25.8957 330.886 22.1885 326.59 22.1885C322.294 22.1885 318.811 25.8957 318.811 30.4687C318.811 35.0417 322.294 38.7489 326.59 38.7489Z" stroke="#f0e8f6d0" stroke-width="3" stroke-miterlimit="10"/>
<path d="M352.087 96.7078C354.712 96.7078 356.841 94.4425 356.841 91.6481C356.841 88.8537 354.712 86.5884 352.087 86.5884C349.462 86.5884 347.334 88.8537 347.334 91.6481C347.334 94.4425 349.462 96.7078 352.087 96.7078Z" stroke="#f0e8f6d0" stroke-width="3" stroke-miterlimit="10"/>
<path d="M283.554 55.2586C265.464 56.6292 253.988 57.9319 253.988 60.3297C253.988 64.67 291.572 68.1881 337.934 68.1881C384.296 68.1881 421.879 64.67 421.879 60.3297C421.879 58.1903 412.748 57.1707 397.935 55.7539" stroke="#f0e8f6d0" stroke-width="3" stroke-miterlimit="10" stroke-linecap="round"/>
<path opacity="0.5" d="M287.971 71.7057C301.931 72.6753 319.217 73.2485 337.934 73.2485C359.395 73.2485 378.976 72.4948 393.818 71.2541" stroke="#f0e8f6d0" stroke-width="3" stroke-miterlimit="10" stroke-linecap="round"/>
<path d="M308.252 146.404V159.835" stroke="#f0e8f6d0" stroke-width="3" stroke-miterlimit="10" stroke-linecap="round"/>
<path d="M302.337 153.119H314.166" stroke="#f0e8f6d0" stroke-width="3" stroke-miterlimit="10" stroke-linecap="round"/>
<path d="M91.9572 137.548V150.979" stroke="#f0e8f6d0" stroke-width="3" stroke-miterlimit="10" stroke-linecap="round"/>
<path d="M86.0423 144.264H97.8715" stroke="#f0e8f6d0" stroke-width="3" stroke-miterlimit="10" stroke-linecap="round"/>
<path d="M190.48 75.0725V88.5029" stroke="#f0e8f6d0" stroke-width="3" stroke-miterlimit="10" stroke-linecap="round"/>
<path d="M184.565 81.7877H196.395" stroke="#f0e8f6d0" stroke-width="3" stroke-miterlimit="10" stroke-linecap="round"/>
<path d="M119.399 296.97V310.4" stroke="#f0e8f6d0" stroke-width="3" stroke-miterlimit="10" stroke-linecap="round"/>
<path d="M125.314 303.685H113.484" stroke="#f0e8f6d0" stroke-width="3" stroke-miterlimit="10" stroke-linecap="round"/>
<path d="M257.143 231.996V239.159" stroke="#f0e8f6d0" stroke-width="3" stroke-miterlimit="10" stroke-linecap="round"/>
<path d="M253.988 235.577H260.297" stroke="#f0e8f6d0" stroke-width="3" stroke-miterlimit="10" stroke-linecap="round"/>
<path d="M291.285 180.851V186.145" stroke="#f0e8f6d0" stroke-width="3" stroke-miterlimit="10" stroke-linecap="round"/>
<path d="M288.953 183.498H293.616" stroke="#f0e8f6d0" stroke-width="3" stroke-miterlimit="10" stroke-linecap="round"/>
<path d="M137.723 175.306V180.6" stroke="#f0e8f6d0" stroke-width="3" stroke-miterlimit="10" stroke-linecap="round"/>
<path d="M135.392 177.953H140.055" stroke="#f0e8f6d0" stroke-width="3" stroke-miterlimit="10" stroke-linecap="round"/>
<path d="M145.199 337.775V343.069" stroke="#f0e8f6d0" stroke-width="3" stroke-miterlimit="10" stroke-linecap="round"/>
<path d="M147.53 340.422H142.867" stroke="#f0e8f6d0" stroke-width="3" stroke-miterlimit="10" stroke-linecap="round"/>
<path d="M110.884 248.746V254.04" stroke="#f0e8f6d0" stroke-width="3" stroke-miterlimit="10" stroke-linecap="round"/>
<path d="M113.215 251.392H108.552" stroke="#f0e8f6d0" stroke-width="3" stroke-miterlimit="10" stroke-linecap="round"/>
<path d="M285.776 248.746V254.04" stroke="#f0e8f6d0" stroke-width="3" stroke-miterlimit="10" stroke-linecap="round"/>
<path d="M288.108 251.392H283.445" stroke="#f0e8f6d0" stroke-width="3" stroke-miterlimit="10" stroke-linecap="round"/>
<path d="M350.441 158.156C353.054 158.156 355.173 155.901 355.173 153.119C355.173 150.338 353.054 148.083 350.441 148.083C347.828 148.083 345.71 150.338 345.71 153.119C345.71 155.901 347.828 158.156 350.441 158.156Z" stroke="#f0e8f6d0" stroke-width="3" stroke-miterlimit="10" stroke-linecap="round"/>
<path d="M267.789 198.867C270.402 198.867 272.521 196.612 272.521 193.831C272.521 191.049 270.402 188.794 267.789 188.794C265.176 188.794 263.058 191.049 263.058 193.831C263.058 196.612 265.176 198.867 267.789 198.867Z" stroke="#f0e8f6d0" stroke-width="3" stroke-miterlimit="10" stroke-linecap="round"/>
<path d="M100.14 220.08C102.753 220.08 104.872 217.825 104.872 215.044C104.872 212.262 102.753 210.007 100.14 210.007C97.5272 210.007 95.4088 212.262 95.4088 215.044C95.4088 217.825 97.5272 220.08 100.14 220.08Z" stroke="#f0e8f6d0" stroke-width="3" stroke-miterlimit="10" stroke-linecap="round"/>
<path d="M255.566 123.453C258.179 123.453 260.297 121.199 260.297 118.417C260.297 115.636 258.179 113.381 255.566 113.381C252.953 113.381 250.834 115.636 250.834 118.417C250.834 121.199 252.953 123.453 255.566 123.453Z" stroke="#f0e8f6d0" stroke-width="3" stroke-miterlimit="10" stroke-linecap="round"/>
<path d="M119.399 107.701C122.012 107.701 124.13 105.446 124.13 102.665C124.13 99.8835 122.012 97.6286 119.399 97.6286C116.786 97.6286 114.667 99.8835 114.667 102.665C114.667 105.446 116.786 107.701 119.399 107.701Z" stroke="#f0e8f6d0" stroke-width="3" stroke-miterlimit="10" stroke-linecap="round"/>
<path d="M79.3391 298.145C81.9522 298.145 84.0705 295.89 84.0705 293.109C84.0705 290.327 81.9522 288.073 79.3391 288.073C76.726 288.073 74.6076 290.327 74.6076 293.109C74.6076 295.89 76.726 298.145 79.3391 298.145Z" stroke="#f0e8f6d0" stroke-width="3" stroke-miterlimit="10" stroke-linecap="round"/>
<path d="M168.695 355.79C171.308 355.79 173.426 353.536 173.426 350.754C173.426 347.973 171.308 345.718 168.695 345.718C166.082 345.718 163.964 347.973 163.964 350.754C163.964 353.536 166.082 355.79 168.695 355.79Z" stroke="#f0e8f6d0" stroke-width="3" stroke-miterlimit="10" stroke-linecap="round"/>
<path d="M246.103 301.548C248.716 301.548 250.834 299.293 250.834 296.512C250.834 293.73 248.716 291.475 246.103 291.475C243.49 291.475 241.371 293.73 241.371 296.512C241.371 299.293 243.49 301.548 246.103 301.548Z" stroke="#f0e8f6d0" stroke-width="3" stroke-miterlimit="10" stroke-linecap="round"/>
<path d="M327.178 180.4C328.049 180.4 328.755 179.649 328.755 178.721C328.755 177.794 328.049 177.042 327.178 177.042C326.307 177.042 325.601 177.794 325.601 178.721C325.601 179.649 326.307 180.4 327.178 180.4Z" fill="#f0e8f6d0"/>
<path d="M150.708 137.864C151.579 137.864 152.285 137.113 152.285 136.185C152.285 135.258 151.579 134.506 150.708 134.506C149.836 134.506 149.13 135.258 149.13 136.185C149.13 137.113 149.836 137.864 150.708 137.864Z" fill="#f0e8f6d0"/>
<path d="M258.72 159.835C259.591 159.835 260.298 159.084 260.298 158.156C260.298 157.229 259.591 156.477 258.72 156.477C257.849 156.477 257.143 157.229 257.143 158.156C257.143 159.084 257.849 159.835 258.72 159.835Z" fill="#f0e8f6d0"/>
<path d="M109.306 337.324C110.177 337.324 110.884 336.572 110.884 335.645C110.884 334.718 110.177 333.966 109.306 333.966C108.435 333.966 107.729 334.718 107.729 335.645C107.729 336.572 108.435 337.324 109.306 337.324Z" fill="#f0e8f6d0"/>
<path d="M227.596 328.93C228.468 328.93 229.174 328.178 229.174 327.251C229.174 326.324 228.468 325.572 227.596 325.572C226.725 325.572 226.019 326.324 226.019 327.251C226.019 328.178 226.725 328.93 227.596 328.93Z" fill="#f0e8f6d0"/>
<path d="M77.7623 186.231C78.6335 186.231 79.3397 185.479 79.3397 184.552C79.3397 183.624 78.6335 182.873 77.7623 182.873C76.8912 182.873 76.185 183.624 76.185 184.552C76.185 185.479 76.8912 186.231 77.7623 186.231Z" fill="#f0e8f6d0"/>
<path d="M285.776 294.788C286.647 294.788 287.353 294.036 287.353 293.109C287.353 292.182 286.647 291.43 285.776 291.43C284.905 291.43 284.199 292.182 284.199 293.109C284.199 294.036 284.905 294.788 285.776 294.788Z" fill="#f0e8f6d0"/>
<path d="M162.919 251.28C162.919 251.28 130.475 276.298 94.2914 275.485C92.9348 275.455 91.3605 275.332 89.626 275.138C49.1434 270.592 9.72467 247.295 -9.93532 209.354C-10.4756 208.311 -11.0022 207.264 -11.5144 206.21C-22.4595 183.72 -33.6836 153.399 -30.5991 130.959" stroke="#f0e8f6d0" stroke-width="3" stroke-miterlimit="10" stroke-linecap="round" stroke-linejoin="round"/>
<path d="M201.208 278.97L162.696 267.979C156.099 266.097 152.186 258.879 153.954 251.858L163.292 214.785C165.606 205.599 174.477 200.148 183.107 202.611L214.255 211.5C222.885 213.963 228.005 223.406 225.691 232.592L216.353 269.665C214.585 276.686 207.804 280.852 201.208 278.97Z" fill="#DCE6FA" stroke="#0E0620" stroke-width="3" stroke-miterlimit="10" stroke-linecap="round" stroke-linejoin="round"/>
<path d="M192.421 140.863L175.695 215.044" stroke="#f0e8f6d0" stroke-width="3" stroke-miterlimit="10" stroke-linecap="round" stroke-linejoin="round"/>
<path d="M192.581 144.262C194.676 144.262 196.374 142.454 196.374 140.224C196.374 137.994 194.676 136.187 192.581 136.187C190.486 136.187 188.788 137.994 188.788 140.224C188.788 142.454 190.486 144.262 192.581 144.262Z" fill="#DCE6FA" stroke="#f0e8f6d0" stroke-width="3" stroke-miterlimit="10" stroke-linecap="round" stroke-linejoin="round"/>
<path d="M214.577 220.925C215.381 221.597 217.498 224.127 218.042 225.126L234.627 255.294C236.921 259.505 235.573 264.898 231.617 267.34C227.661 269.782 222.594 268.347 220.3 264.136L216.966 258.017" fill="#DCE6FA"/>
<path d="M214.577 220.925C215.381 221.597 217.498 224.127 218.042 225.126L234.627 255.294C236.921 259.505 235.573 264.898 231.617 267.34C227.661 269.782 222.594 268.347 220.3 264.136L216.966 258.017" stroke="#0E0620" stroke-width="3" stroke-miterlimit="10" stroke-linecap="round" stroke-linejoin="round"/>
<path d="M231.313 266.295C234.428 264.371 235.913 260.617 235.287 257.053C236.681 257.903 237.895 259.136 238.76 260.721C241.384 265.532 239.848 271.697 235.328 274.491C230.809 277.284 225.017 275.649 222.393 270.838C221.349 268.925 220.716 267.154 220.915 265.109C223.497 267.992 227.937 268.383 231.313 266.295Z" fill="#DCE6FA" stroke="#0E0620" stroke-width="3" stroke-miterlimit="10" stroke-linecap="round" stroke-linejoin="round"/>
<path d="M179.274 211.185C178.261 211.338 175.758 212.215 174.816 212.791L146.277 230.081C142.312 232.506 140.944 237.894 143.222 242.114C145.501 246.335 150.562 247.791 154.527 245.366L160.289 241.842" fill="#DCE6FA"/>
<path d="M179.274 211.185C178.261 211.338 175.758 212.215 174.816 212.791L146.277 230.081C142.312 232.506 140.944 237.894 143.222 242.114C145.501 246.335 150.562 247.791 154.527 245.366L160.289 241.842" stroke="#0E0620" stroke-width="3" stroke-miterlimit="10" stroke-linecap="round" stroke-linejoin="round"/>
<path d="M143.977 241.372C142.185 238.047 142.663 234.006 144.88 231.253C143.273 231.247 141.643 231.669 140.149 232.581C135.615 235.349 134.048 241.504 136.648 246.33C139.249 251.156 145.032 252.824 149.565 250.056C151.368 248.955 152.748 247.758 153.537 245.883C149.948 247.002 145.92 244.977 143.977 241.372Z" fill="#DCE6FA" stroke="#0E0620" stroke-width="3" stroke-miterlimit="10" stroke-linecap="round" stroke-linejoin="round"/>
<path d="M210.244 222.412C205.515 223.212 200.576 223 195.678 221.602C190.78 220.205 186.405 217.758 182.686 214.547C172.568 217.211 164.081 225.497 161.19 236.974L160.372 240.219C156.14 257.018 165.499 274.286 181.274 278.788C197.05 283.29 213.268 273.321 217.5 256.521L218.317 253.277C221.208 241.799 217.753 230.106 210.244 222.412Z" fill="#DCE6FA" stroke="#0E0620" stroke-width="3" stroke-miterlimit="10" stroke-linecap="round" stroke-linejoin="round"/>
<path d="M160.458 241.111C176.107 254.185 195.953 259.848 215.856 257.403L217.296 257.331" fill="#DCE6FA"/>
<path d="M160.458 241.111C176.107 254.185 195.953 259.848 215.856 257.403L217.296 257.331" stroke="#0E0620" stroke-width="3" stroke-miterlimit="10" stroke-linecap="round" stroke-linejoin="round"/>
<path d="M186.209 280.265L177.692 314.082C176.564 318.559 179.06 323.162 183.267 324.363C187.474 325.564 191.798 322.907 192.926 318.429L203.54 276.291C198.403 279.728 192.498 280.678 186.209 280.265Z" fill="#DCE6FA" stroke="#0E0620" stroke-width="3" stroke-miterlimit="10" stroke-linecap="round" stroke-linejoin="round"/>
<path d="M181.405 299.338L196.64 303.685" stroke="#0E0620" stroke-width="3" stroke-miterlimit="10" stroke-linecap="round" stroke-linejoin="round"/>
<path d="M176.307 277.44L167.79 311.256C166.662 315.733 162.337 318.39 158.131 317.19C153.924 315.989 151.428 311.386 152.556 306.909L163.169 264.77C166.001 270.481 170.667 274.448 176.307 277.44Z" fill="#DCE6FA" stroke="#0E0620" stroke-width="3" stroke-miterlimit="10" stroke-linecap="round" stroke-linejoin="round"/>
<path d="M156.27 292.164L171.503 296.512" stroke="#0E0620" stroke-width="3" stroke-miterlimit="10" stroke-linecap="round" stroke-linejoin="round"/>
<path d="M237.739 200.531C243.013 179.598 231.771 158.199 212.63 152.735C193.489 147.272 173.697 159.814 168.423 180.747C163.15 201.681 174.392 223.08 193.533 228.543C212.674 234.006 232.466 221.465 237.739 200.531Z" fill="#DCE6FA" stroke="#0E0620" stroke-width="3" stroke-miterlimit="10" stroke-linecap="round" stroke-linejoin="round"/>
<path d="M196.866 156.514C192.149 157.603 187.715 159.837 183.896 163.003Z" fill="#DCE6FA"/>
<path d="M196.866 156.514C192.149 157.603 187.715 159.837 183.896 163.003" stroke="#0E0620" stroke-width="3" stroke-miterlimit="10" stroke-linecap="round" stroke-linejoin="round"/>
<path d="M226.61 210.237C225.868 213.183 223.832 215.571 221.138 216.609C215.586 218.747 205.549 221.559 195.969 218.825C186.389 216.091 179.021 208.313 175.217 203.504C173.372 201.17 172.732 198.019 173.474 195.073L177.909 177.468C178.358 175.682 179.801 174.385 181.531 174.219C185.55 173.833 193.756 173.834 206.393 177.441C219.03 181.048 226.136 185.415 229.434 187.889C230.855 188.955 231.494 190.846 231.044 192.632L226.61 210.237Z" fill="#DCE6FA" stroke="#0E0620" stroke-width="3" stroke-miterlimit="10" stroke-linecap="round" stroke-linejoin="round"/>
<path d="M165.669 228.879L227.887 158.248L216.814 150.358L157.56 222.121L165.669 228.879Z" fill="#DCE6FA" stroke="#0E0620" stroke-width="3" stroke-miterlimit="10"/>
</svg>
